<svg fill="none" height="19" viewBox="0 0 20 19" width="20" xmlns="http://www.w3.org/2000/svg"><path clip-rule="evenodd" d="m5.10811.788086s-1.36378.081259-1.84512.934474c-.48133.85322-2.04567 5.2412-2.04567 5.2412s.52145.24377 1.4039-.4063c.88244-.65007 1.16322-1.78769 1.16322-1.78769l1.60445-.08126.04011 4.63175s-2.76767-.04063-3.32923 0-.88245 1.54394-.88245 1.54394h4.21168s-.361 2.5596-1.444 4.4286c-1.08301 1.8689-3.128677 3.3316-3.128677 3.3316s1.484117.6094 2.928117-.2438 2.50867-4.6055 2.50867-4.6055l3.38767 4.1992s.30914-1.9986-.05485-2.5632c-.36399-.5645-2.34321-2.8343-2.34321-2.8343l-.86449.772.61521-2.4846h3.69026s0-1.46268-.722-1.54394c-.72203-.08126-2.96826 0-2.96826 0v-4.55049h3.32926s-.0401-1.50329-.68192-1.50329h-5.41501zm6.40329 2.334844h7.5902v13.68047h-3.3545l-2.3864 1.7174-.4932-1.7174h-1.3561zm6.0475 1.5226h-4.4404v10.60407h.414l.4384 1.5354 2.0106-1.5354h1.5774z" fill="#fff" fill-rule="evenodd"/></svg>