<svg fill="none" height="14" viewBox="0 0 18 14" width="18" xmlns="http://www.w3.org/2000/svg"><path d="m15.75 0h-13.5c-1.24088 0-2.25 1.00912-2.25 2.25v9c0 1.2409 1.00912 2.25 2.25 2.25h13.5c1.2409 0 2.25-1.0091 2.25-2.25v-9c0-1.24088-1.0091-2.25-2.25-2.25zm0 1.125c.1103 0 .2092.03262.3094.063l-6.65552 6.58575c-.21825.21825-.59063.21825-.81113.00113l-6.69375-6.57901c.1125-.03712.22725-.07087.351-.07087zm1.125 10.125c0 .621-.504 1.125-1.125 1.125h-13.5c-.61987 0-1.125-.504-1.125-1.125v-9c0-.07087.027-.13163.0405-.198l6.63862 6.525c.32963.324.76163.48713 1.19475.48713.43426 0 .86738-.16425 1.19703-.4905l6.6319-6.56213c.0168.07875.0472.15413.0472.2385z" fill="#fff"/></svg>