<svg fill="none" height="18" viewBox="0 0 18 18" width="18" xmlns="http://www.w3.org/2000/svg"><path d="m13.9879 8.414c.0441.29019.2943.49756.5784.49756.0301 0 .0598-.00198.0899-.00668.3201-.0493.5397-.34891.4905-.6689-.7777-5.07032-5.31903-5.30857-5.36473-5.31055-.31461-.01683-.59594.23903-.60888.56295-.01287.32393.23912.59697.56242.60993.03631.00155 3.61929.19088 4.25239 4.31569zm1.3091-5.59673c-3.9911-3.9922-7.63301-2.591342-7.78625-2.529538-.30012.12095-.44587.462784-.32516.763288.12116.30084.46193.44675.76245.32547.03053-.0122 3.07146-1.179501 6.51996 2.2705 3.1766 3.17807 2.2441 6.40511 2.2038 6.53841-.0965.3095.0751.6389.3839.7359.0567.0177.1159.0267.1754.0266.2498 0 .4811-.1604.5597-.4111.0507-.1627 1.2037-4.02078-2.4938-7.71953zm-1.3729 13.82183c-.0562.0563-.2399.1873-.737.1873-1.6113 0-4.69918-1.3551-7.67171-4.3298-3.9027-3.90725-4.790188-7.76444-4.13835-8.41656.42128-.42211 1.29754-1.29994 2.12603-1.29994.45841 0 .89298.26403 1.32798.807 1.25371 1.56367.71095 2.09994-.18873 2.98839l-.16729.16583c-.2255.2254-.34469.52271-.34469.86028-.00033.53903.25991 1.51587 2.51105 3.7672 2.25147 2.2525 3.22693 2.5131 3.76511 2.5131h.0003c.3362 0 .6327-.1185.8583-.3435l.1653-.167c.4892-.4965.9122-.9257 1.4468-.9257.4142 0 .9325.2477 1.5398.736.5175.4165.7804.8296.8035 1.2647.0465.8501-.8601 1.7568-1.2964 2.1927zm1.2272-4.372c-.8324-.6698-1.5766-.9949-2.2741-.9949-1.0251 0-1.6927.6775-2.2816 1.2753l-.1892.1608c-.1801 0-.92387-.1561-2.93612-2.1696-2.34846-2.34915-2.16633-2.96646-2.16633-2.96768l.16181-.1603c.92659-.91506 2.196-2.16845.27978-4.55783-.66282-.82665-1.41748-1.24637-2.24247-1.24637-1.31391 0-2.382 1.06947-2.955394 1.64342-1.695316 1.69817.786384 6.72036 4.138774 10.07646 3.22575 3.2281 6.59345 4.6736 8.50065 4.6736.6878 0 1.215-.1791 1.5664-.5309.5557-.5562 1.7125-1.713 1.6379-3.0865-.0419-.7757-.4592-1.4877-1.2401-2.1155z" fill="#fff"/></svg>