<svg fill="none" height="18" viewBox="0 0 14 18" width="14" xmlns="http://www.w3.org/2000/svg"><g fill="#fff"><path d="m6.86959 9.3914c-1.56521 0-2.82607-1.26086-2.82607-2.82607s1.26086-2.82607 2.82607-2.82607 2.82607 1.26086 2.82607 2.82607-1.26086 2.82607-2.82607 2.82607zm0-4.56519c-.95652 0-1.73912.7826-1.73912 1.73912s.7826 1.73912 1.73912 1.73912 1.73912-.7826 1.73912-1.73912-.7826-1.73912-1.73912-1.73912z"/><path d="m6.86969 16.1738c-.13043 0-.26087-.0434-.3913-.1739-.04348-.0435-.78261-.7391-1.69565-1.7391-2.21738-2.3478-3.5652-4.1304-3.999977-5.21736-.304347-.78261-.478259-1.60869-.478259-2.47825 0-3.65216 2.956506-6.56519 6.565186-6.56519 3.60871 0 6.56521 2.95651 6.56521 6.56519 0 .91304-.1739 1.73912-.5218 2.5652-.4782 1.08691-1.7826 2.82611-3.95646 5.17391-.95652 1-1.69565 1.7391-1.69565 1.7391-.13043.087-.26087.1304-.3913.1304zm0-15.08685c-3.04346 0-5.47823 2.47825-5.47823 5.47824 0 .73912.13043 1.43477.3913 2.08694.3913.95652 1.73912 2.69567 3.78259 4.91307.52174.5652.99999 1.0434 1.30434 1.3478.30435-.3044.78261-.7826 1.30434-1.3478 2.04347-2.2174 3.34777-3.86959 3.78257-4.82611.3044-.69565.4348-1.3913.4348-2.13043-.0435-3.08694-2.47825-5.52171-5.52171-5.52171z"/><path d="m6.86953 18.0001c-3.30433 0-6.86953-.7392-6.86953-2.3479 0-1.7391 3.91302-2.2173 5.13041-2.3043.17391 0 .34782.0435.43478.1739.52174.5652 1 1.0435 1.30434 1.3478.30435-.3043.78261-.7826 1.30434-1.3478.13044-.1304.26087-.1739.43478-.1739 1.21739.087 5.13045.5652 5.13045 2.3043 0 1.6087-3.5652 2.3479-6.86957 2.3479zm-1.91303-3.5218c-2.69564.2609-3.82607.9565-3.86955 1.1739.04348.3913 2.04347 1.2609 5.78258 1.2609 3.69567 0 5.73907-.913 5.78257-1.2609-.0435-.2608-1.1739-.9565-3.86953-1.1739-.86957.9131-1.52174 1.5652-1.52174 1.5652-.21739.2174-.56521.2174-.73912 0-.04348-.0434-.69565-.6521-1.56521-1.5652z"/></g></svg>