<svg fill="none" height="24" viewBox="0 0 28 24" width="28" xmlns="http://www.w3.org/2000/svg"><path clip-rule="evenodd" d="m18.3315 6.36904c-1.5464-1.81478-3.8488-2.96573-6.4199-2.96573-2.57114 0-4.87347 1.15095-6.41989 2.96573v-3.42981c0-.62236.30627-1.17319.7763-1.50999.00911-.01162.01833-.01994.02766-.02493l.03999-.02133c.1094-.07131.22678-.1314.35051-.17863.21834-.10676.44043-.207032.66601-.300574 1.40442-.582358 2.94442-.903776 4.55942-.903776s3.155.321418 4.5594.903776c.2256.093542.4477.193814.666.300574.1238.04723.2411.10732.3505.17863l.04.02133c.0088.00471.0175.01264.0261.02381.4709.3367.7779.88806.7779 1.51111zm-6.4199 13.89616c4.5647 0 8.2821-3.6276 8.4266-8.1572.0029-.0484.0043-.0971.0043-.1462v-8.4648c2.1508 2.15493 3.4807 5.12946 3.4807 8.4146 0 6.5786-5.333 11.9116-11.9116 11.9116-6.57859 0-11.9116-5.333-11.9116-11.9116 0-3.28514 1.32989-6.25967 3.48066-8.4146v8.4648c0 .0491.00147.0978.00436.1462.14451 4.5296 3.86191 8.1572 8.42658 8.1572zm16.0111 1.4696c0 1.1534-.9351 2.0884-2.0884 2.0884-1.1534 0-2.0884-.935-2.0884-2.0884s.935-2.0884 2.0884-2.0884c1.1533 0 2.0884.935 2.0884 2.0884z" fill="#fff" fill-rule="evenodd"/></svg>