<svg fill="none" height="20" viewBox="0 0 20 20" width="20" xmlns="http://www.w3.org/2000/svg"><path clip-rule="evenodd" d="m9.99938 0c-5.52188 0-9.99938 4.49462-9.99938 10.0403 0 4.435 2.865 8.198 6.83938 9.5257.5.0922.68249-.2177.68249-.4838 0-.2384-.00875-.8697-.01375-1.7073-2.78187.6067-3.36874-1.346-3.36874-1.346-.45438-1.1596-1.11-1.4683-1.11-1.4683-.90813-.6231.06874-.6105.06874-.6105 1.00313.0709 1.53125 1.0347 1.53125 1.0347.8925 1.5342 2.34063 1.0912 2.91063.8339.09062-.6488.34938-1.0912.635-1.3422-2.22062-.2535-4.555-1.1144-4.555-4.96143 0-1.0962.38938-1.99224 1.02937-2.69439-.10312-.25413-.44625-1.27441.0975-2.65674 0 0 .84-.26981 2.75 1.02906.79813-.22275 1.65313-.33381 2.50373-.33821.8494.0044 1.705.11546 2.5038.33821 1.9087-1.29887 2.7469-1.02906 2.7469-1.02906.5456 1.38233.2024 2.40261.0993 2.65674.6413.70215 1.0281 1.59819 1.0281 2.69439 0 3.85643-2.3381 4.70543-4.5656 4.95393.3588.31.6788.9224.6788 1.8592 0 1.3422-.0125 2.4246-.0125 2.754 0 .2686.18.5811.6875.4826 3.9706-1.3303 6.8331-5.0908 6.8331-9.5245 0-5.54568-4.4775-10.0403-10.00062-10.0403z" fill="#fff" fill-rule="evenodd"/></svg>