<svg fill="none" height="21" viewBox="0 0 25 21" width="25" xmlns="http://www.w3.org/2000/svg"><path clip-rule="evenodd" d="m3.56 13.7958c.1199.0774-.07621.6555-.27294 1.2355-.20026.5904-.40116 1.1826-.26994 1.2502.22182.1143.78454-.3089 1.34759-.7324.5452-.41 1.09071-.8203 1.32731-.743.95633.3123 1.99191.4831 3.07322.4831.54182 0 1.07216-.0429 1.58676-.125 1.0183 2.3405 3.6774 4.0099 6.7974 4.0099.8527 0 1.6711-.1247 2.4309-.3538.1233-.0371.5982.3097 1.0755.6583.4882.3566.9789.715 1.0983.6659.1939-.0796.0123-.5724-.1698-1.0666-.1774-.4816-.3554-.9648-.1869-1.0682 1.8135-1.1133 2.9928-2.9207 2.9928-4.9611 0-3.2857-3.0579-5.96716-6.8975-6.11876-.4132-3.88685-4.1629-6.92984-8.72746-6.92984-4.84091 0-8.76524 3.4226-8.76524 7.64459 0 2.52211 1.40039 4.75891 3.56 6.15121zm12.4041-6.79105c-.3912-3.07339-3.465-5.46629-7.19886-5.46629-3.99901 0-7.24085 2.7448-7.24085 6.13068 0 1.92984 1.05315 3.78636 2.6994 4.91016.01251.0085.03228.0201.05687.0344.14521.0845.45826.2667.43395.5115-.06221.6265-.24779 1.0554-.24779 1.0554s.50693-.5891.88497-.8729c.16817-.1263.47903-.0316.56621 0 .87395.3167 1.83641.4921 2.84724.4921.40393 0 .80013-.028 1.18604-.0818-.02825-.2199-.04274-.4432-.04274-.6694 0-3.0416 2.62036-5.56532 6.05556-6.04385zm-9.10434-2.00475c0 .63725-.51187 1.15385-1.1433 1.15385-.63142 0-1.14329-.5166-1.14329-1.15385s.51187-1.15385 1.14329-1.15385c.63143 0 1.1433.5166 1.1433 1.15385zm4.95424 1.15385c.6314 0 1.1433-.5166 1.1433-1.15385s-.5119-1.15385-1.1433-1.15385-1.1433.5166-1.1433 1.15385.5119 1.15385 1.1433 1.15385zm2.6677 5.38465c.421 0 .7622-.3444.7622-.7693 0-.4248-.3412-.7692-.7622-.7692-.4209 0-.7622.3444-.7622.7692 0 .4249.3413.7693.7622.7693zm5.3354-.7693c0 .4249-.3413.7693-.7622.7693-.421 0-.7622-.3444-.7622-.7693 0-.4248.3412-.7692.7622-.7692.4209 0 .7622.3444.7622.7692z" fill="#fff" fill-rule="evenodd"/></svg>