<svg fill="none" viewBox="0 0 140 50" xmlns="http://www.w3.org/2000/svg"><path d="M39 13h1v25h-1z" fill="#323232" fill-opacity=".2"/><g fill="#283a5e"><path clip-rule="evenodd" d="M15.756 20.474a7.23 7.23 0 0 0-5.518-2.549 7.23 7.23 0 0 0-5.518 2.55v-2.949c0-.535.263-1.008.667-1.297a.079.079 0 0 1 .024-.022l.035-.018a1.59 1.59 0 0 1 .3-.154A10.208 10.208 0 0 1 10.238 15a10.208 10.208 0 0 1 4.493 1.035c.106.04.207.092.3.154l.035.018c.008.004.015.01.023.02.404.29.668.764.668 1.3v2.947zm-5.518 11.944a7.247 7.247 0 0 0 7.247-7.137v-7.275a10.206 10.206 0 0 1 2.992 7.232c0 5.654-4.584 10.238-10.239 10.238C4.584 35.476 0 30.892 0 25.238c0-2.824 1.143-5.38 2.992-7.232v7.275a7.247 7.247 0 0 0 7.247 7.137zM24 33.681a1.795 1.795 0 1 1-3.59 0 1.795 1.795 0 0 1 3.59 0z" fill-rule="evenodd"/><path d="M55.856 25.68c2.848-1.248 3.152-3.376 3.152-4.784v-.848h2.608v3.472c0 .864.128 1.168 1.168 1.168h.768c1.44 0 1.936-.288 1.936-.816 0-.288-.128-.4-.496-.56l-.064-.016h-.16c-.096.016-.224.048-.32.064h-.272c-.096.016-.272.016-.448.016h-.496c-.224 0-.256-.064-.256-.24v-2.928c.288-.048.48-.128.592-.24l-1.376-1.152-.736.768h-2.208l-1.616-.624v1.936c0 1.488-.24 3.2-1.936 4.608zm.24-1.44a66.42 66.42 0 0 1-1.872.912v-2.464h2.08c.208 0 .384-.08.416-.256-.512-.544-1.376-1.296-1.376-1.296l-.784 1.088h-.336v-3.088c.4-.064.56-.224.592-.448l-2.064-.208v3.744h-2.224l.128.464h2.096v3.152c-1.008.464-1.824.832-2.288 1.008l.896 1.712c.16-.096.256-.288.288-.496.384-.288.752-.544 1.104-.8v3.904c0 .224-.08.304-.368.304-.336 0-1.856-.112-1.856-.112v.24c.72.128 1.088.304 1.312.576.224.24.304.64.352 1.168 1.824-.176 2.032-.88 2.032-2.016V26.08c.8-.64 1.472-1.216 1.968-1.664zm6.128 2.064a10.409 10.409 0 0 1-2 3.296 7.618 7.618 0 0 1-2.336-3.296zm.848-1.296l-.88.832h-5.984l.144.464h1.216c.432 1.664 1.056 2.976 1.936 4.016-1.28 1.2-2.928 2.144-4.896 2.816l.112.224c2.24-.496 4.032-1.248 5.472-2.288 1.088 1.024 2.432 1.728 4.064 2.272.208-.72.672-1.168 1.312-1.28l.016-.192c-1.632-.336-3.136-.832-4.384-1.6 1.136-1.04 2-2.304 2.624-3.712.368-.032.544-.08.672-.24zm12.8.288V20.4h1.968v4.896zm-4.96-.416v5.104h-1.648V24.88zm8.624.416h-.224V20.4h1.616c.224 0 .4-.08.448-.256-.592-.56-1.568-1.328-1.568-1.328l-.88 1.12h-5.824c-.624-.528-1.408-1.152-1.408-1.152l-.88 1.104h-4.24l.128.464h1.968c-.368 2.864-1.072 5.808-2.32 8.016l.224.176c.496-.544.928-1.136 1.328-1.744v5.52h.24c.688 0 1.12-.32 1.12-.432v-1.44h1.648v1.088h.224c.48 0 1.152-.288 1.168-.4v-6.064c.272-.064.496-.176.592-.288L71.44 23.68l-.688.736h-1.296l-.272-.112a19.1 19.1 0 0 0 1.056-3.952h2.608c.064 0 .128 0 .192-.016l.016.064h1.36v4.896h-1.792l.128.464h1.664c-.048 2.88-.544 5.424-3.152 7.456l.16.176c3.776-1.824 4.384-4.704 4.448-7.632h1.968v7.568h.256c.752 0 1.216-.32 1.216-.432V25.76h1.968c.224 0 .384-.08.432-.256-.512-.56-1.392-1.36-1.392-1.36zm8.512-3.68c.528-.448 1.168-1.12 1.68-1.728.336.016.528-.128.592-.304l-1.728-.608c-.24.912-.544 1.888-.784 2.496zm-4.816-2.4c.4.528.848 1.392.896 2.128 1.104.944 2.368-1.248-.736-2.24zm5.12 8.496c-.24.816-.576 1.552-1.04 2.208-.624-.176-1.36-.304-2.304-.368.352-.56.736-1.216 1.088-1.84zm.752-1.216l-.8.752h-1.952c.144-.272.272-.528.384-.752.464.032.624-.096.688-.256l-1.408-.496h.144c.512 0 1.12-.288 1.12-.416V22.96c.64.608 1.312 1.456 1.568 2.16 1.344.816 2.272-1.728-1.568-2.528v-.272h3.264c.208 0 .368-.08.4-.256-.496-.496-1.344-1.2-1.344-1.2l-.768.992H87.28v-2.768c.4-.064.528-.208.56-.416l-1.952-.192v3.376h-3.232l.128.464h2.528a9.475 9.475 0 0 1-2.832 3.472l.16.224c1.264-.592 2.368-1.328 3.248-2.256v1.936L85.6 25.6c-.144.4-.432.992-.752 1.648H82.64l.144.464h1.84c-.4.768-.832 1.536-1.168 2.032l-.048.064c.944.192 2.096.56 3.136 1.056-.944.944-2.208 1.696-3.856 2.224l.112.24c1.968-.4 3.488-1.072 4.624-2 .464.288.864.592 1.136.912.992.32 1.6-.976-.144-1.888.608-.704 1.056-1.504 1.408-2.432.352-.032.512-.08.624-.224zm5.52-3.904c-.128 2.016-.496 3.84-1.232 5.456-.672-1.168-1.184-2.496-1.536-3.984.24-.448.464-.96.656-1.472zm2.64 0c.224 0 .384-.08.432-.256-.608-.56-1.616-1.344-1.616-1.344l-.88 1.136h-2.512c.304-.864.56-1.776.784-2.736.352-.016.544-.176.592-.384l-2.208-.48c-.272 2.864-1.008 5.888-1.904 7.936l.224.128c.512-.576.976-1.232 1.392-1.984.272 1.648.672 3.168 1.264 4.512-.96 1.568-2.384 2.928-4.432 4.032l.112.192c2.176-.768 3.744-1.792 4.896-3.056.704 1.216 1.632 2.272 2.832 3.072.208-.672.672-1.072 1.36-1.2l.048-.16c-1.408-.704-2.528-1.616-3.44-2.752 1.248-1.824 1.824-4.064 2.08-6.656zm9.056.48c.224 0 .368-.08.416-.256-.576-.544-1.488-1.264-1.488-1.264l-.848 1.056h-.928c.096-.576.128-1.184.16-1.84h2.4c.208 0 .384-.08.416-.256-.544-.544-1.488-1.264-1.488-1.264l-.832 1.056h-2.56c.16-.288.32-.576.464-.896.352 0 .544-.144.608-.336l-1.952-.576c-.256 1.456-.768 2.864-1.376 3.792l.208.16a6.194 6.194 0 0 0 1.744-1.68h.864c-.016.656-.032 1.264-.096 1.84h-3.328l.128.464h3.136c-.288 1.568-1.072 2.832-3.296 3.888l.176.24c2.368-.752 3.536-1.744 4.144-2.992.784.56 1.664 1.392 2.016 2.096 1.392.608 1.952-1.984-1.856-2.448.08-.256.16-.512.224-.784zm-3.28 8.8v-2.016h6.128v2.016zm6.128-4.384v1.904h-6.128v-1.904zm-.144-.464h-5.872l-1.616-.672v6.992h.224c.64 0 1.28-.336 1.28-.48v-.528h6.128v.944h.256c.496 0 1.248-.288 1.264-.4v-5.152c.304-.048.528-.192.624-.32l-1.552-1.184zm-.592-2.576v-3.776h2.736v3.776zm3.312-5.024l-.736.784h-2.496l-1.52-.64v6.688h.224c.608 0 1.216-.352 1.216-.48v-.864h2.736v1.056h.24c.48 0 1.216-.288 1.232-.4v-4.64c.304-.064.544-.192.656-.32zm15.632 1.104c.224 0 .4-.08.448-.256C127.12 19.664 126 18.8 126 18.8l-1.008 1.264h-8.72l.128.464zm-.816 3.936h-11.968l.128.464h6.24c-.816 1.792-2.896 4.752-4.368 5.856-.192.128-.608.224-.608.224l.64 1.984c.16-.048.32-.16.464-.352 3.92-.544 7.168-1.088 9.424-1.52.352.656.624 1.296.784 1.904 1.92 1.424 3.056-2.848-3.392-5.984l-.176.128c.848.976 1.84 2.272 2.56 3.568-3.616.192-7.024.336-9.024.384 1.936-1.36 4.176-3.488 5.296-5.008.32.032.528-.08.608-.208l-1.776-.976h7.616c.224 0 .4-.08.448-.256-.704-.624-1.872-1.52-1.872-1.52z"/></g></svg>