<svg fill="none" height="29" viewBox="0 0 720 29" width="720" xmlns="http://www.w3.org/2000/svg" xmlns:xlink="http://www.w3.org/1999/xlink"><mask id="a" fill="#fff"><path clip-rule="evenodd" d="m20 14c0 3.3137-2.6863 6-6 6s-6-2.6863-6-6 2.6863-6 6-6 6 2.6863 6 6zm20 0c0 3.3137-2.6863 6-6 6s-6-2.6863-6-6 2.6863-6 6-6 6 2.6863 6 6zm14 6c3.3137 0 6-2.6863 6-6s-2.6863-6-6-6-6 2.6863-6 6 2.6863 6 6 6z" fill="#fff" fill-rule="evenodd"/></mask><path d="m0 4c0-2.20914 1.79086-4 4-4h712c2.209 0 4 1.79086 4 4v24h-720z" fill="#fff"/><path clip-rule="evenodd" d="m20 14c0 3.3137-2.6863 6-6 6s-6-2.6863-6-6 2.6863-6 6-6 6 2.6863 6 6zm20 0c0 3.3137-2.6863 6-6 6s-6-2.6863-6-6 2.6863-6 6-6 6 2.6863 6 6zm14 6c3.3137 0 6-2.6863 6-6s-2.6863-6-6-6-6 2.6863-6 6 2.6863 6 6 6z" fill="#e5e5e5" fill-rule="evenodd"/><path d="m14 20.5c3.5899 0 6.5-2.9101 6.5-6.5h-1c0 3.0376-2.4624 5.5-5.5 5.5zm-6.5-6.5c0 3.5899 2.9101 6.5 6.5 6.5v-1c-3.0376 0-5.5-2.4624-5.5-5.5zm6.5-6.5c-3.5899 0-6.5 2.9101-6.5 6.5h1c0-3.0376 2.4624-5.5 5.5-5.5zm6.5 6.5c0-3.5899-2.9101-6.5-6.5-6.5v1c3.0376 0 5.5 2.4624 5.5 5.5zm13.5 6.5c3.5899 0 6.5-2.9101 6.5-6.5h-1c0 3.0376-2.4624 5.5-5.5 5.5zm-6.5-6.5c0 3.5899 2.9101 6.5 6.5 6.5v-1c-3.0376 0-5.5-2.4624-5.5-5.5zm6.5-6.5c-3.5899 0-6.5 2.9101-6.5 6.5h1c0-3.0376 2.4624-5.5 5.5-5.5zm6.5 6.5c0-3.5899-2.9101-6.5-6.5-6.5v1c3.0376 0 5.5 2.4624 5.5 5.5zm19 0c0 3.0376-2.4624 5.5-5.5 5.5v1c3.5899 0 6.5-2.9101 6.5-6.5zm-5.5-5.5c3.0376 0 5.5 2.4624 5.5 5.5h1c0-3.5899-2.9101-6.5-6.5-6.5zm-5.5 5.5c0-3.0376 2.4624-5.5 5.5-5.5v-1c-3.5899 0-6.5 2.9101-6.5 6.5zm5.5 5.5c-3.0376 0-5.5-2.4624-5.5-5.5h-1c0 3.5899 2.9101 6.5 6.5 6.5z" fill="#c1c1c1" mask="url(#a)"/><g stroke-width=".5"><circle cx="14" cy="14" fill="#ec6a5e" r="5.75" stroke="#d15247"/><circle cx="34" cy="14" fill="#f4be4f" r="5.75" stroke="#d7a43d"/><circle cx="54" cy="14" fill="#61c454" r="5.75" stroke="#4faa3f"/></g><path d="m0 28.5h720v.5h-720z" fill="#000" fill-opacity=".15"/></svg>